<svg fill="#fff" xmlns="http://www.w3.org/2000/svg"  viewBox="0 0 48 48" width="24px" height="24px"><path d="M 13 3 C 12.156 3 11.337687 3.1076406 10.554688 3.3066406 C 10.163687 3.4056406 9.8839375 3.7513437 9.8359375 4.1523438 L 9.7382812 4.9511719 C 9.6822812 5.4201719 9.409 5.8362656 9 6.0722656 C 8.591 6.3082656 8.0941563 6.3383438 7.6601562 6.1523438 L 6.9277344 5.8398438 C 6.5567344 5.6818437 6.1179375 5.7490625 5.8359375 6.0390625 C 4.6979375 7.2090625 3.8398594 8.6535781 3.3808594 10.267578 C 3.2708594 10.656578 3.4309062 11.073406 3.7539062 11.316406 L 4.4003906 11.800781 C 4.7783906 12.083781 5 12.528 5 13 C 5 13.472 4.7783906 13.916219 4.4003906 14.199219 L 3.7558594 14.683594 C 3.4328594 14.925594 3.2718125 15.343422 3.3828125 15.732422 C 3.8418125 17.346422 4.6969375 18.790938 5.8359375 19.960938 C 6.1169375 20.249938 6.5586875 20.319156 6.9296875 20.160156 L 7.6601562 19.847656 C 8.0941563 19.661656 8.592 19.692734 9 19.927734 C 9.408 20.162734 9.6822812 20.579828 9.7382812 21.048828 L 9.8359375 21.849609 C 9.8839375 22.250609 10.163688 22.596312 10.554688 22.695312 C 11.338687 22.893313 12.156 23 13 23 C 13.844 23 14.662313 22.892359 15.445312 22.693359 C 15.836313 22.594359 16.116063 22.248656 16.164062 21.847656 L 16.259766 21.046875 C 16.315766 20.577875 16.590047 20.163734 16.998047 19.927734 C 17.406047 19.691734 17.903891 19.661656 18.337891 19.847656 L 19.070312 20.160156 C 19.441312 20.319156 19.880109 20.249937 20.162109 19.960938 C 21.300109 18.790937 22.158188 17.346422 22.617188 15.732422 C 22.727187 15.343422 22.567141 14.926594 22.244141 14.683594 L 21.599609 14.199219 C 21.221609 13.916219 21 13.472 21 13 C 21 12.528 21.221609 12.083781 21.599609 11.800781 L 22.244141 11.316406 C 22.567141 11.074406 22.728187 10.656578 22.617188 10.267578 C 22.158188 8.6535781 21.303062 7.2090625 20.164062 6.0390625 C 19.883063 5.7500625 19.441312 5.6808438 19.070312 5.8398438 L 18.339844 6.1523438 C 17.905844 6.3383437 17.409 6.3082656 17 6.0722656 C 16.591 5.8362656 16.317719 5.4201719 16.261719 4.9511719 L 16.164062 4.1503906 C 16.116063 3.7503906 15.836312 3.4036875 15.445312 3.3046875 C 14.661312 3.1066875 13.844 3 13 3 z M 21.5 3 C 20.914 3 20.335672 3.0348438 19.763672 3.0898438 C 20.937672 3.8928437 21.955297 4.9035 22.779297 6.0625 C 30.215297 6.6855 36.179625 12.675187 36.890625 20.492188 C 36.917625 20.785187 37.030844 21.063922 37.214844 21.294922 L 42.001953 27.285156 L 38.005859 28.683594 C 37.403859 28.895594 37 29.461609 37 30.099609 L 37 36.337891 C 37 36.983891 36.588609 37.556719 35.974609 37.761719 L 30.392578 39.621094 C 28.960578 40.099094 28 41.433406 28 42.941406 L 28 43.5 C 28 44.328 28.672 45 29.5 45 C 30.328 45 31 44.328 31 43.5 L 31 42.941406 C 31 42.725406 31.137797 42.535797 31.341797 42.466797 L 36.921875 40.605469 C 38.762875 39.992469 40 38.277891 40 36.337891 L 40 31.164062 L 42.992188 30.117188 C 43.910187 29.795188 44.617719 29.044375 44.886719 28.109375 C 45.155719 27.174375 44.952703 26.164297 44.345703 25.404297 L 39.832031 19.763672 C 38.739031 10.175672 30.936 3 21.5 3 z M 13 10 C 14.657 10 16 11.343 16 13 C 16 14.657 14.657 16 13 16 C 11.343 16 10 14.657 10 13 C 10 11.343 11.343 10 13 10 z M 3.1328125 19.818359 C 3.0518125 20.535359 3 21.262 3 22 C 3 27.271 5.1682187 32.350547 8.9492188 35.935547 C 10.271219 37.189547 11 38.80075 11 40.46875 L 11 43.5 C 11 44.328 11.672 45 12.5 45 C 13.328 45 14 44.328 14 43.5 L 14 40.46875 C 14 37.96975 12.938672 35.586766 11.013672 33.759766 C 8.0096719 30.911766 6.2350625 26.936719 6.0390625 22.761719 C 4.9090625 21.954719 3.9238125 20.960359 3.1328125 19.818359 z"/></svg>